<?xml version="1.0" standalone="no"?>
<!DOCTYPE svg PUBLIC "-//W3C//DTD SVG 20010904//EN"
 "http://www.w3.org/TR/2001/REC-SVG-20010904/DTD/svg10.dtd">
<svg version="1.0" xmlns="http://www.w3.org/2000/svg"
 width="260.000000pt" height="260.000000pt" viewBox="0 0 260.000000 260.000000"
 preserveAspectRatio="xMidYMid meet">
<metadata>
Created by potrace 1.14, written by Peter Selinger 2001-2017
</metadata>
<g transform="translate(0.000000,260.000000) scale(0.100000,-0.100000)"
fill="#000000" stroke="none">
<path d="M1514 2502 c-16 -11 -22 -35 -13 -57 7 -19 8 -19 8 3 1 13 6 32 11
43 12 21 11 23 -6 11z"/>
<path d="M1251 2483 c7 -12 15 -20 18 -17 3 2 -3 12 -13 22 -17 16 -18 16 -5
-5z"/>
<path d="M1560 2485 c0 -8 4 -15 10 -15 5 0 7 7 4 15 -4 8 -8 15 -10 15 -2 0
-4 -7 -4 -15z"/>
<path d="M1143 2455 c0 -22 2 -30 4 -17 2 12 2 30 0 40 -3 9 -5 -1 -4 -23z"/>
<path d="M1182 2465 c0 -16 2 -22 5 -12 2 9 2 23 0 30 -3 6 -5 -1 -5 -18z"/>
<path d="M1302 2460 c0 -19 2 -27 5 -17 2 9 2 25 0 35 -3 9 -5 1 -5 -18z"/>
<path d="M1402 2470 c14 -22 24 -19 15 5 -4 8 -11 15 -17 15 -6 0 -6 -7 2 -20z"/>
<path d="M1052 2450 c0 -14 2 -19 5 -12 2 6 2 18 0 25 -3 6 -5 1 -5 -13z"/>
<path d="M1000 2445 c7 -9 15 -13 17 -11 7 7 -7 26 -19 26 -6 0 -6 -6 2 -15z"/>
<path d="M1370 2442 c0 -12 19 -26 26 -19 2 2 -2 10 -11 17 -9 8 -15 8 -15 2z"/>
<path d="M1543 2420 c-11 -16 -10 -18 1 -14 15 6 30 34 18 34 -4 0 -13 -9 -19
-20z"/>
<path d="M1604 2426 c-3 -8 -4 -23 -2 -33 3 -11 6 -6 9 15 6 34 2 42 -7 18z"/>
<path d="M919 2415 c5 -11 17 -29 26 -40 l16 -20 -10 20 c-5 11 -17 29 -26 40
l-16 20 10 -20z"/>
<path d="M1718 2393 c5 -21 7 -23 10 -9 2 10 0 22 -6 28 -6 6 -7 0 -4 -19z"/>
<path d="M980 2405 c0 -10 29 -24 34 -17 3 6 -3 12 -14 15 -11 3 -20 4 -20 2z"/>
<path d="M820 2396 c0 -2 9 -6 20 -9 11 -3 18 -1 14 4 -5 9 -34 13 -34 5z"/>
<path d="M1760 2369 c-6 -11 -10 -25 -8 -30 2 -5 8 4 15 21 13 34 9 40 -7 9z"/>
<path d="M1160 2370 c-481 -67 -857 -456 -931 -960 -18 -126 -7 -342 24 -462
57 -217 154 -387 311 -544 211 -211 433 -310 721 -321 154 -6 287 17 423 72
213 87 417 262 524 452 16 29 33 51 36 49 4 -2 8 6 8 17 1 12 18 62 39 111 57
136 78 253 78 431 0 339 -119 623 -356 852 -106 102 -168 145 -299 208 -170
82 -400 120 -578 95z m333 -26 c226 -43 452 -175 604 -353 278 -325 362 -768
222 -1169 -122 -349 -396 -606 -747 -699 -84 -23 -117 -26 -252 -26 -135 0
-168 3 -252 26 -845 225 -1126 1338 -492 1947 252 242 575 339 917 274z"/>
<path d="M1460 2290 c0 -5 -7 -10 -15 -10 -22 0 -18 -17 5 -23 19 -5 29 -45
14 -60 -3 -3 -7 -48 -8 -99 -2 -110 -26 -171 -100 -262 -50 -62 -60 -111 -31
-150 8 -11 15 -32 15 -47 0 -15 5 -31 10 -34 6 -3 10 -44 10 -89 0 -80 -1 -85
-27 -101 -21 -14 -39 -16 -89 -12 -61 6 -62 6 -76 -24 -13 -26 -16 -28 -28
-14 -11 13 -15 14 -29 1 -9 -8 -36 -16 -61 -18 -25 -3 -52 -6 -60 -9 -26 -7
-24 63 4 134 27 66 36 106 11 50 l-14 -32 -68 4 c-59 3 -61 3 -16 -3 29 -4 58
-14 65 -21 11 -12 10 -12 -7 -5 -11 5 -57 9 -103 9 -84 0 -111 11 -44 18 l37
4 -42 1 c-31 2 -43 7 -48 21 -9 28 12 72 55 116 54 55 67 94 69 207 2 86 0 97
-16 101 -10 3 2 5 27 4 25 0 35 -2 22 -4 -22 -4 -23 -8 -22 -106 1 -56 6 -119
12 -139 11 -36 98 -151 98 -129 0 6 -16 28 -35 50 -51 56 -62 93 -64 209 -2
96 -1 102 18 102 28 0 37 20 13 27 -11 2 -23 14 -25 25 -6 22 -27 16 -27 -8 0
-8 -9 -14 -20 -14 -11 0 -20 -7 -20 -15 0 -8 7 -15 16 -15 13 0 15 -14 13 -92
-3 -110 -14 -142 -68 -201 -57 -61 -64 -85 -46 -154 8 -32 15 -86 15 -120 l0
-63 -153 6 -154 7 -6 -39 c-4 -21 -6 -84 -6 -139 1 -82 3 -94 11 -65 5 19 8
80 8 134 l-1 99 156 -7 157 -7 -4 85 c-3 98 -5 96 83 96 90 0 98 -7 92 -80 -5
-50 -3 -61 11 -66 10 -4 22 -2 29 5 6 6 28 11 49 11 32 0 38 -3 38 -20 0 -12
-10 -24 -22 -30 -18 -7 -19 -9 -5 -9 15 -1 17 -15 17 -146 l0 -145 -197 -3
-198 -2 202 -3 201 -2 4 173 c2 122 7 179 17 196 l13 24 17 -22 17 -22 17 36
c12 25 23 35 35 33 15 -3 18 -24 22 -198 l6 -195 2 193 2 192 35 0 c20 0 59
12 88 26 49 26 57 26 160 21 107 -7 109 -7 168 -49 59 -41 60 -41 89 -25 41
25 82 22 110 -8 13 -14 34 -25 47 -25 l23 0 2 -182 3 -183 65 -9 65 -9 3 -209
4 -210 -61 4 c-61 3 -61 3 -61 -24 l0 -28 -119 0 c-66 0 -127 3 -136 6 -14 6
-16 28 -15 178 2 210 2 196 -11 196 -9 0 -10 -51 -4 -190 l7 -190 -36 0 -36 0
-3 197 -2 198 -3 -197 -2 -197 -82 0 c-46 0 -130 -10 -188 -21 -58 -11 -108
-20 -112 -20 -5 0 -9 114 -10 253 l-2 252 -6 -245 c-3 -135 -9 -239 -13 -232
-5 6 -20 12 -35 12 -16 0 -35 9 -46 21 -14 17 -25 20 -54 16 -21 -3 -144 -9
-274 -13 l-238 -7 -2 44 c-1 42 -2 42 -5 8 l-4 -37 -51 54 -50 53 5 208 5 208
-10 -213 -11 -214 59 -59 58 -59 111 1 c60 0 184 4 275 9 165 8 165 8 187 -15
15 -16 29 -22 44 -18 15 4 27 -1 39 -17 l17 -23 115 22 c99 18 151 21 381 21
l267 0 0 25 c0 24 3 25 61 25 l61 0 -6 218 -5 217 -66 9 -66 9 1 181 2 181
-32 6 c-17 4 -41 16 -54 28 -27 25 -77 27 -112 4 -24 -15 -27 -15 -52 6 -15
12 -37 26 -49 33 -13 6 -23 17 -23 25 0 7 -11 13 -26 13 l-27 0 5 104 c3 74 9
112 21 130 9 14 17 33 17 43 -1 11 -7 4 -15 -16 -11 -24 -19 -31 -31 -27 -14
5 -15 4 -5 -7 6 -8 9 -25 7 -38 -3 -13 -5 -63 -5 -110 l-1 -85 -89 4 c-55 3
-96 0 -110 -7 -21 -12 -21 -11 -21 78 0 49 -4 93 -10 96 -14 9 -12 49 3 64 10
10 9 11 -5 6 -20 -8 -38 21 -38 63 0 19 17 49 53 95 56 70 104 181 93 215 -4
11 -4 27 0 36 11 30 22 6 21 -47 -1 -65 34 -141 97 -212 24 -28 46 -59 49 -70
4 -19 5 -19 6 1 1 12 -20 45 -49 78 -77 88 -91 129 -96 279 -4 122 -3 127 16
127 27 0 25 14 -5 34 -28 18 -45 21 -45 6z m27 -15 c0 -8 -4 -15 -9 -15 -4 0
-8 7 -8 15 0 8 4 15 8 15 5 0 9 -7 9 -15z m-2 -105 c3 -5 1 -10 -4 -10 -6 0
-11 5 -11 10 0 6 2 10 4 10 3 0 8 -4 11 -10z"/>
<path d="M1428 1703 c7 -3 16 -2 19 1 4 3 -2 6 -13 5 -11 0 -14 -3 -6 -6z"/>
<path d="M1488 1703 c6 -2 18 -2 25 0 6 3 1 5 -13 5 -14 0 -19 -2 -12 -5z"/>
<path d="M1463 1663 c9 -2 23 -2 30 0 6 3 -1 5 -18 5 -16 0 -22 -2 -12 -5z"/>
<path d="M1530 1656 c0 -2 11 -6 25 -8 13 -3 22 -1 19 3 -5 9 -44 13 -44 5z"/>
<path d="M1530 1567 l5 -72 3 64 c2 35 -1 68 -5 72 -4 4 -6 -24 -3 -64z"/>
<path d="M1438 1558 c3 -51 0 -73 -10 -80 -10 -8 -10 -9 2 -5 11 3 16 21 18
72 2 37 -1 72 -5 76 -4 4 -6 -24 -5 -63z"/>
<path d="M1504 1545 c1 -58 4 -70 19 -73 9 -2 17 1 17 7 0 6 -7 8 -15 5 -11
-5 -15 8 -18 63 l-3 68 0 -70z"/>
<path d="M820 1375 c0 -25 5 -45 10 -45 6 0 10 20 10 45 0 25 -4 45 -10 45 -5
0 -10 -20 -10 -45z"/>
<path d="M880 1376 c0 -25 5 -48 10 -51 6 -4 10 13 10 44 0 28 -4 51 -10 51
-5 0 -10 -20 -10 -44z"/>
<path d="M930 1370 c0 -22 5 -40 10 -40 6 0 10 18 10 40 0 22 -4 40 -10 40 -5
0 -10 -18 -10 -40z"/>
<path d="M1567 1322 c-10 -10 -17 -25 -17 -33 0 -8 6 -3 13 11 8 16 23 26 40
28 51 6 57 -8 57 -146 l0 -125 -57 6 c-35 3 -50 2 -38 -3 11 -5 39 -9 63 -9
l42 -1 0 128 c0 112 -2 131 -18 145 -24 22 -65 21 -85 -1z"/>
<path d="M1029 1243 c-13 -16 -12 -17 4 -4 9 7 17 15 17 17 0 8 -8 3 -21 -13z"/>
<path d="M1794 1155 c0 -60 1 -84 3 -52 2 32 2 81 0 110 -2 29 -3 3 -3 -58z"/>
<path d="M904 1228 l-19 -23 23 19 c21 18 27 26 19 26 -2 0 -12 -10 -23 -22z"/>
<path d="M507 1192 c-2 -4 -1 -19 2 -34 5 -21 9 -25 21 -18 10 6 11 10 3 10
-7 0 -13 7 -13 15 0 8 7 15 16 15 8 0 13 -4 10 -9 -4 -5 3 -7 14 -4 12 3 30
-2 43 -13 l22 -19 -18 22 c-18 21 -18 21 5 26 13 3 5 4 -17 3 -22 -2 -50 1
-62 5 -12 5 -24 5 -26 1z"/>
<path d="M866 1191 c-12 -5 -15 -10 -9 -14 6 -4 16 0 23 8 14 17 13 17 -14 6z"/>
<path d="M640 1180 c0 -5 6 -10 14 -10 7 0 19 -7 26 -15 12 -14 15 -14 31 1
10 9 27 14 39 11 11 -3 18 -1 14 4 -3 5 7 9 22 9 26 0 26 -1 11 -18 -10 -10
-17 -23 -17 -28 0 -4 7 2 16 15 10 14 23 21 34 18 12 -3 17 0 14 8 -6 15 -204
20 -204 5z m70 -15 c-10 -12 -16 -13 -26 -4 -20 16 -18 19 12 19 22 0 25 -2
14 -15z"/>
<path d="M1032 1103 l-2 -73 -79 0 c-67 0 -80 3 -84 18 -4 16 -5 16 -6 0 -1
-16 -15 -18 -144 -18 l-143 0 -23 -32 -22 -33 25 28 25 27 226 0 c181 0 227 3
231 14 3 7 3 42 1 77 l-3 64 -2 -72z"/>
<path d="M502 990 c0 -19 2 -27 5 -17 2 9 2 25 0 35 -3 9 -5 1 -5 -18z"/>
<path d="M572 910 l2 -75 3 67 4 67 52 3 52 3 -58 5 -57 5 2 -75z"/>
<path d="M511 951 c-7 -5 -12 -14 -10 -20 2 -6 10 -2 17 9 14 22 13 23 -7 11z"/>
<path d="M2043 923 c9 -2 23 -2 30 0 6 3 -1 5 -18 5 -16 0 -22 -2 -12 -5z"/>
<path d="M1378 893 c7 -3 16 -2 19 1 4 3 -2 6 -13 5 -11 0 -14 -3 -6 -6z"/>
<path d="M1828 883 c7 -3 16 -2 19 1 4 3 -2 6 -13 5 -11 0 -14 -3 -6 -6z"/>
<path d="M1554 838 l-19 -23 23 19 c21 18 27 26 19 26 -2 0 -12 -10 -23 -22z"/>
<path d="M564 705 c0 -66 1 -92 3 -57 2 34 2 88 0 120 -2 31 -3 3 -3 -63z"/>
<path d="M1973 760 c0 -36 2 -50 4 -32 2 17 2 47 0 65 -2 17 -4 3 -4 -33z"/>
<path d="M1853 760 c0 -25 2 -35 4 -22 2 12 2 32 0 45 -2 12 -4 2 -4 -23z"/>
<path d="M1363 755 c0 -22 2 -30 4 -17 2 12 2 30 0 40 -3 9 -5 -1 -4 -23z"/>
<path d="M771 2365 c0 -5 6 -21 14 -35 8 -14 14 -20 14 -15 0 6 -6 21 -14 35
-8 14 -14 21 -14 15z"/>
<path d="M825 2340 c3 -5 14 -10 23 -10 15 0 15 2 2 10 -20 13 -33 13 -25 0z"/>
<path d="M1830 2329 c-7 -11 -10 -23 -7 -25 2 -2 9 7 15 21 14 30 7 33 -8 4z"/>
<path d="M740 2325 c0 -5 5 -17 10 -25 5 -8 10 -10 10 -5 0 6 -5 17 -10 25 -5
8 -10 11 -10 5z"/>
<path d="M1865 2304 c-9 -14 -14 -28 -12 -31 3 -3 13 9 22 26 19 38 14 41 -10
5z"/>
<path d="M660 2297 c0 -16 21 -47 33 -47 8 0 9 3 1 8 -6 4 -16 16 -22 27 -6
11 -12 16 -12 12z"/>
<path d="M1944 2255 c-9 -14 -15 -27 -13 -30 3 -2 12 10 21 26 21 36 15 39 -8
4z"/>
<path d="M615 2258 c11 -6 23 -16 27 -22 5 -8 8 -7 8 1 0 7 -9 17 -19 23 -27
14 -41 12 -16 -2z"/>
<path d="M520 2247 c0 -12 53 -87 63 -87 4 0 3 8 -2 18 -16 27 -60 78 -61 69z"/>
<path d="M2031 2206 c-18 -19 -29 -36 -24 -38 4 -3 23 13 42 34 41 47 27 51
-18 4z"/>
<path d="M500 2164 c18 -25 34 -43 37 -41 6 7 -48 87 -59 87 -5 0 5 -21 22
-46z"/>
<path d="M2087 2195 c-10 -7 -14 -16 -9 -19 5 -3 15 1 22 9 17 21 9 27 -13 10z"/>
<path d="M2122 2105 c-17 -37 -14 -45 4 -12 9 16 14 31 11 33 -2 2 -9 -7 -15
-21z"/>
<path d="M2080 2105 c0 -8 4 -15 10 -15 5 0 7 7 4 15 -4 8 -8 15 -10 15 -2 0
-4 -7 -4 -15z"/>
<path d="M440 2075 c13 -14 26 -25 28 -25 3 0 -5 11 -18 25 -13 14 -26 25 -28
25 -3 0 5 -11 18 -25z"/>
<path d="M2182 2042 c-24 -48 -25 -58 -3 -23 12 18 21 37 19 42 -2 4 -9 -4
-16 -19z"/>
<path d="M410 2035 c13 -14 26 -23 28 -20 7 7 -29 45 -41 45 -6 0 0 -11 13
-25z"/>
<path d="M2248 1977 c-3 -19 -2 -25 4 -19 6 6 8 18 6 28 -3 14 -5 12 -10 -9z"/>
<path d="M2203 1975 c-3 -9 -3 -18 -1 -21 3 -3 8 4 11 16 6 23 -1 27 -10 5z"/>
<path d="M344 1966 c11 -9 27 -16 35 -15 14 0 14 1 1 6 -8 3 -24 10 -35 15
-20 9 -20 9 -1 -6z"/>
<path d="M2256 1925 c-11 -8 -18 -17 -15 -19 2 -3 15 4 29 14 14 11 21 20 15
19 -5 0 -19 -6 -29 -14z"/>
<path d="M346 1918 c3 -4 9 -8 15 -8 5 0 9 4 9 8 0 5 -7 9 -15 9 -8 0 -12 -4
-9 -9z"/>
<path d="M2274 1878 l-19 -21 30 18 c41 26 40 25 23 25 -8 0 -23 -10 -34 -22z"/>
<path d="M325 1880 c3 -5 8 -10 11 -10 2 0 4 5 4 10 0 6 -5 10 -11 10 -5 0 -7
-4 -4 -10z"/>
<path d="M274 1861 c4 -6 16 -16 28 -22 15 -8 18 -8 14 0 -4 6 -16 16 -28 22
-15 8 -18 8 -14 0z"/>
<path d="M2300 1850 c-24 -15 -7 -19 20 -5 15 8 19 14 10 14 -8 1 -22 -3 -30
-9z"/>
<path d="M240 1820 c-8 -5 -12 -12 -9 -15 4 -3 12 1 19 10 14 17 11 19 -10 5z"/>
<path d="M270 1780 c-23 -7 -23 -8 -3 -9 12 -1 25 4 28 9 3 6 5 10 3 9 -2 -1
-14 -5 -28 -9z"/>
<path d="M2354 1725 c-17 -13 -16 -14 14 -4 33 11 41 19 19 19 -7 0 -22 -7
-33 -15z"/>
<path d="M201 1716 c2 -2 15 -9 29 -15 24 -11 24 -11 6 3 -16 13 -49 24 -35
12z"/>
<path d="M2380 1645 c-7 -9 -10 -18 -7 -21 3 -3 10 4 17 15 13 25 8 27 -10 6z"/>
<path d="M2431 1644 c0 -11 3 -14 6 -6 3 7 2 16 -1 19 -3 4 -6 -2 -5 -13z"/>
<path d="M204 1605 c-18 -14 -18 -14 4 -8 12 3 22 9 22 14 0 12 -3 11 -26 -6z"/>
<path d="M2405 1580 l-20 -9 20 0 c11 0 27 4 35 9 13 9 13 10 0 9 -8 0 -24 -4
-35 -9z"/>
<path d="M160 1560 c8 -5 24 -10 34 -10 26 0 18 6 -19 14 -22 5 -26 4 -15 -4z"/>
<path d="M155 1510 c11 -5 27 -9 35 -9 9 0 8 4 -5 9 -11 5 -27 9 -35 9 -9 0
-8 -4 5 -9z"/>
<path d="M2419 1483 c-13 -16 -12 -17 4 -4 9 7 17 15 17 17 0 8 -8 3 -21 -13z"/>
<path d="M2466 1475 c-3 -8 -1 -15 4 -15 6 0 10 7 10 15 0 8 -2 15 -4 15 -2 0
-6 -7 -10 -15z"/>
<path d="M126 1462 c-3 -5 8 -6 25 -4 16 2 29 6 29 8 0 8 -49 4 -54 -4z"/>
<path d="M158 1423 c7 -3 16 -2 19 1 4 3 -2 6 -13 5 -11 0 -14 -3 -6 -6z"/>
<path d="M2445 1420 c-13 -5 -14 -9 -5 -9 8 0 24 4 35 9 13 5 14 9 5 9 -8 0
-24 -4 -35 -9z"/>
<path d="M113 1348 c-24 -11 -43 -24 -43 -30 0 -5 3 -7 8 -5 4 3 28 14 55 26
26 12 47 24 47 26 0 10 -26 3 -67 -17z"/>
<path d="M2445 1339 c-4 -6 -5 -12 -2 -15 2 -3 7 2 10 11 7 17 1 20 -8 4z"/>
<path d="M2484 1319 c-19 -22 -19 -22 4 -10 12 6 22 16 22 21 0 15 -5 12 -26
-11z"/>
<path d="M135 1205 c-25 -12 -26 -14 -5 -9 14 4 29 10 35 15 12 12 5 11 -30
-6z"/>
<path d="M155 1170 c-3 -5 -1 -10 4 -10 6 0 11 5 11 10 0 6 -2 10 -4 10 -3 0
-8 -4 -11 -10z"/>
<path d="M2451 1176 c2 -2 18 -6 34 -10 22 -5 26 -4 15 4 -14 9 -59 15 -49 6z"/>
<path d="M2453 1123 c9 -2 25 -2 35 0 9 3 1 5 -18 5 -19 0 -27 -2 -17 -5z"/>
<path d="M2439 1073 c-13 -17 -13 -17 6 -3 11 8 22 16 24 17 2 2 0 3 -6 3 -6
0 -17 -8 -24 -17z"/>
<path d="M133 1073 c9 -2 25 -2 35 0 9 3 1 5 -18 5 -19 0 -27 -2 -17 -5z"/>
<path d="M2480 1050 c-9 -6 -10 -10 -3 -10 6 0 15 5 18 10 8 12 4 12 -15 0z"/>
<path d="M2425 1000 c-7 -12 2 -12 30 0 19 8 19 9 -2 9 -12 1 -25 -3 -28 -9z"/>
<path d="M143 993 c9 -2 25 -2 35 0 9 3 1 5 -18 5 -19 0 -27 -2 -17 -5z"/>
<path d="M197 900 c-9 -11 -13 -20 -8 -20 11 0 35 29 29 35 -2 2 -12 -4 -21
-15z"/>
<path d="M2390 836 c0 -6 74 -46 85 -46 18 0 -1 18 -32 30 -21 8 -41 16 -45
18 -5 2 -8 1 -8 -2z"/>
<path d="M218 813 c-10 -2 -18 -9 -18 -14 0 -6 8 -5 20 1 11 6 20 13 20 15 0
3 -1 4 -2 4 -2 -1 -11 -3 -20 -6z"/>
<path d="M238 760 c-16 -14 -28 -29 -28 -33 0 -5 14 6 32 22 18 17 30 32 28
34 -3 1 -17 -9 -32 -23z"/>
<path d="M2370 780 c0 -5 10 -10 23 -10 18 0 19 2 7 10 -19 13 -30 13 -30 0z"/>
<path d="M2347 739 c7 -7 15 -10 18 -7 3 3 -2 9 -12 12 -14 6 -15 5 -6 -5z"/>
<path d="M2358 688 c6 -6 18 -8 28 -6 14 3 12 5 -9 10 -19 3 -25 2 -19 -4z"/>
<path d="M276 635 c-11 -8 -15 -15 -10 -15 6 0 19 7 30 15 10 8 15 14 9 14 -5
0 -19 -6 -29 -14z"/>
<path d="M2340 636 c14 -8 27 -12 29 -10 6 6 -1 11 -29 18 l-25 7 25 -15z"/>
<path d="M314 555 c-3 -8 -4 -20 -2 -27 3 -7 7 -1 10 15 6 29 1 36 -8 12z"/>
<path d="M357 551 c-4 -17 -3 -21 5 -13 5 5 8 16 6 23 -3 8 -7 3 -11 -10z"/>
<path d="M2264 541 c4 -6 16 -16 28 -22 15 -8 18 -8 14 0 -4 6 -16 16 -28 22
-15 8 -18 8 -14 0z"/>
<path d="M335 469 c-11 -17 0 -20 21 -4 17 13 17 14 2 15 -9 0 -20 -5 -23 -11z"/>
<path d="M380 440 c-19 -17 -30 -30 -25 -30 9 0 85 50 85 56 0 12 -30 -1 -60
-26z"/>
<path d="M2204 446 c11 -9 24 -16 30 -16 12 0 7 5 -24 19 -24 11 -24 11 -6 -3z"/>
<path d="M475 374 c-9 -14 -14 -28 -12 -31 3 -3 13 9 22 26 19 38 14 41 -10 5z"/>
<path d="M2149 366 c14 -14 27 -26 29 -26 10 0 -26 44 -39 48 -8 3 -3 -7 10
-22z"/>
<path d="M2195 380 c3 -5 8 -10 11 -10 2 0 4 5 4 10 0 6 -5 10 -11 10 -5 0 -7
-4 -4 -10z"/>
<path d="M507 355 c-4 -11 -10 -27 -13 -35 -3 -8 1 -5 11 8 9 12 15 28 13 34
-3 7 -7 4 -11 -7z"/>
<path d="M2086 308 c10 -14 21 -24 23 -22 3 3 -6 15 -18 27 l-24 22 19 -27z"/>
<path d="M562 295 c-7 -14 -12 -31 -12 -38 1 -7 7 3 16 22 17 39 13 54 -4 16z"/>
<path d="M2000 266 c0 -2 9 -6 20 -9 11 -3 18 -1 14 4 -5 9 -34 13 -34 5z"/>
<path d="M630 245 c-6 -8 -10 -19 -8 -24 1 -6 8 1 15 14 13 28 11 31 -7 10z"/>
<path d="M2008 218 c5 -5 16 -8 23 -6 8 3 3 7 -10 11 -17 4 -21 3 -13 -5z"/>
<path d="M710 149 c0 -34 2 -60 5 -58 8 9 11 110 3 115 -4 3 -8 -23 -8 -57z"/>
<path d="M1901 163 c11 -34 19 -42 19 -20 0 7 -7 22 -15 33 -13 17 -14 16 -4
-13z"/>
<path d="M1940 186 c0 -3 9 -10 20 -16 11 -6 20 -8 20 -6 0 3 -9 10 -20 16
-11 6 -20 8 -20 6z"/>
<path d="M1795 106 c10 -14 19 -26 22 -26 7 0 -17 39 -28 46 -6 3 -3 -5 6 -20z"/>
</g>
</svg>
